<svg id="Layer_1" data-name="Layer 1" xmlns="http://www.w3.org/2000/svg" xmlns:xlink="http://www.w3.org/1999/xlink" viewBox="0 0 1000 1000"><defs><style>.cls-1{fill:none;}.cls-2{clip-path:url(#clip-path);}.cls-3{fill:url(#linear-gradient);}.cls-4{opacity:0.1;}.cls-5{clip-path:url(#clip-path-2);}.cls-6{fill:#fff;}.cls-7{clip-path:url(#clip-path-3);}.cls-8{fill:#47b9ea;}</style><clipPath id="clip-path"><path class="cls-1" d="M737.42,168.87a10.6,10.6,0,0,0-9.54,5.9L569.44,496.42c-14.2,28.85-55.2,28.85-69.4,0L341.15,174.88a10.6,10.6,0,0,0-9.54-5.9h-75.3a10.63,10.63,0,0,0-9.54,15.33L464.27,627.6c14.19,28.85,55.19,28.85,69.39,0L753.43,179.66a7.42,7.42,0,0,0-6.7-10.68h-9.31Z"/></clipPath><linearGradient id="linear-gradient" x1="1601.69" y1="4006.05" x2="1602.83" y2="4006.05" gradientTransform="translate(-717027.81 -1793587.98) scale(447.82)" gradientUnits="userSpaceOnUse"><stop offset="0" stop-color="#8f53a1"/><stop offset="0.03" stop-color="#865ba6"/><stop offset="0.15" stop-color="#6c72b6"/><stop offset="0.26" stop-color="#598bc9"/><stop offset="0.39" stop-color="#4b9fd8"/><stop offset="0.52" stop-color="#44aee3"/><stop offset="0.66" stop-color="#44b6e8"/><stop offset="0.83" stop-color="#47b9ea"/><stop offset="1" stop-color="#2abbd6"/></linearGradient><clipPath id="clip-path-2"><rect class="cls-1" x="245.63" y="168.87" width="218.64" height="458.63"/></clipPath><clipPath id="clip-path-3"><rect class="cls-1" x="245.74" y="168.87" width="254.41" height="327.56"/></clipPath></defs><g class="cls-2"><rect class="cls-3" x="243.24" y="168.87" width="512.69" height="487.36"/></g><g class="cls-4"><g class="cls-5"><path class="cls-6" d="M464.27,627.49,341.15,174.88a11,11,0,0,0-9-5.9H256.53a10.65,10.65,0,0,0-9.76,15.33Z"/></g></g><g class="cls-4"><g class="cls-7"><path class="cls-6" d="M500,496.42,246.65,184.2c-3.07-7.38,1.48-14.65,8.75-15.33h76.78a11.11,11.11,0,0,1,9,5.9Z"/></g></g><path class="cls-8" d="M451.43,800.81a47.59,47.59,0,1,1,0-35.44,3.58,3.58,0,0,1-2.27,4.77l-2.73.91a3.66,3.66,0,0,1-4.43-2,37.62,37.62,0,1,0-.11,28.39,3.6,3.6,0,0,1,4.43-2l2.73.91a3.27,3.27,0,0,1,2.38,4.54m-287.8,5.79-34-67.35a4.12,4.12,0,0,0-5.91-1.59l-1.59,1a4.14,4.14,0,0,0-1.48,5.34l42.94,85.07a3,3,0,0,0,5.33,0L211.9,744a4.13,4.13,0,0,0-1.48-5.34l-1.59-1a4.2,4.2,0,0,0-5.91,1.59L169,806.6a2.94,2.94,0,0,1-5.33,0M678.7,753.9a47.94,47.94,0,1,0-.11,58.72v15.11a2.93,2.93,0,0,0,2.95,2.95h4.09a2.93,2.93,0,0,0,3-2.95V748.9a2.93,2.93,0,0,0-3-2.95h-4.09a2.93,2.93,0,0,0-2.95,2.95v5ZM641,821a37.71,37.71,0,1,1,37.71-37.71A37.77,37.77,0,0,1,641,821m99,9.65h4.09a2.93,2.93,0,0,0,3-2.95V748.9a2.93,2.93,0,0,0-3-2.95H740a2.93,2.93,0,0,0-2.95,2.95v78.83a2.93,2.93,0,0,0,2.95,2.95M522.64,739.36a42.86,42.86,0,0,0-34,15.45V725.28a2.93,2.93,0,0,0-2.95-2.95h-4.09a2.93,2.93,0,0,0-2.95,2.95V827.73a2.93,2.93,0,0,0,2.95,2.95h4.09a2.92,2.92,0,0,0,2.95-2.95V783.21c0-18.52,15.11-34.08,33.62-33.74a33.11,33.11,0,0,1,32.49,33v45.21a2.93,2.93,0,0,0,3,2.95h4.09a2.93,2.93,0,0,0,2.95-2.95V783.32c.12-23.63-18.51-43.5-42.14-44M740,735.16h4.09a2.93,2.93,0,0,0,3-2.95v-6.82a2.93,2.93,0,0,0-3-2.95H740a2.93,2.93,0,0,0-2.95,2.95v6.82a3,3,0,0,0,2.95,2.95m97.56,4.32a42.85,42.85,0,0,0-34,15.44v-6a2.93,2.93,0,0,0-3-2.95h-4.09a2.93,2.93,0,0,0-3,2.95v78.83a2.93,2.93,0,0,0,3,2.95h4.09a2.92,2.92,0,0,0,3-2.95V783.32c0-18.51,15.11-34.07,33.62-33.73a33.11,33.11,0,0,1,32.49,33v45.09a2.93,2.93,0,0,0,3,2.95h4.09a2.93,2.93,0,0,0,3-2.95v-44.3c.12-23.62-18.51-43.5-42.14-43.95m-507.8,60.88a3.14,3.14,0,0,0-2-4.21L324.22,795a3.14,3.14,0,0,0-3.86,1.93,37.55,37.55,0,0,1-72.46-13.86,34.53,34.53,0,0,1,.8-7.61,37.62,37.62,0,0,1,70.64-8.86,3.15,3.15,0,0,1-2.16,4.55l-30,6.24a3.22,3.22,0,0,0-2.5,3.75l.8,3.64a3.2,3.2,0,0,0,3.74,2.49l40.78-8.4a3.22,3.22,0,0,0,2.5-3.75l-.34-1.82a47.69,47.69,0,0,0-93.37.23,45.51,45.51,0,0,0-1,9.54,47.63,47.63,0,0,0,92,17.27"/><g class="cls-2"><rect class="cls-3" x="243.24" y="168.87" width="512.69" height="487.36"/></g><g class="cls-4"><g class="cls-5"><path class="cls-6" d="M464.27,627.49,341.15,174.88a11,11,0,0,0-9-5.9H256.53a10.65,10.65,0,0,0-9.76,15.33Z"/></g></g><g class="cls-4"><g class="cls-7"><path class="cls-6" d="M500,496.42,246.65,184.2c-3.07-7.38,1.48-14.65,8.75-15.33h76.78a11.11,11.11,0,0,1,9,5.9Z"/></g></g><path class="cls-8" d="M451.43,800.81a47.59,47.59,0,1,1,0-35.44,3.58,3.58,0,0,1-2.27,4.77l-2.73.91a3.66,3.66,0,0,1-4.43-2,37.62,37.62,0,1,0-.11,28.39,3.6,3.6,0,0,1,4.43-2l2.73.91a3.27,3.27,0,0,1,2.38,4.54m-287.8,5.79-34-67.35a4.12,4.12,0,0,0-5.91-1.59l-1.59,1a4.14,4.14,0,0,0-1.48,5.34l42.94,85.07a3,3,0,0,0,5.33,0L211.9,744a4.13,4.13,0,0,0-1.48-5.34l-1.59-1a4.2,4.2,0,0,0-5.91,1.59L169,806.6a2.94,2.94,0,0,1-5.33,0M678.7,753.9a47.94,47.94,0,1,0-.11,58.72v15.11a2.93,2.93,0,0,0,2.95,2.95h4.09a2.93,2.93,0,0,0,3-2.95V748.9a2.93,2.93,0,0,0-3-2.95h-4.09a2.93,2.93,0,0,0-2.95,2.95v5ZM641,821a37.71,37.71,0,1,1,37.71-37.71A37.77,37.77,0,0,1,641,821m99,9.65h4.09a2.93,2.93,0,0,0,3-2.95V748.9a2.93,2.93,0,0,0-3-2.95H740a2.93,2.93,0,0,0-2.95,2.95v78.83a2.93,2.93,0,0,0,2.95,2.95M522.64,739.36a42.86,42.86,0,0,0-34,15.45V725.28a2.93,2.93,0,0,0-2.95-2.95h-4.09a2.93,2.93,0,0,0-2.95,2.95V827.73a2.93,2.93,0,0,0,2.95,2.95h4.09a2.92,2.92,0,0,0,2.95-2.95V783.21c0-18.52,15.11-34.08,33.62-33.74a33.11,33.11,0,0,1,32.49,33v45.21a2.93,2.93,0,0,0,3,2.95h4.09a2.93,2.93,0,0,0,2.95-2.95V783.32c.12-23.63-18.51-43.5-42.14-44M740,735.16h4.09a2.93,2.93,0,0,0,3-2.95v-6.82a2.93,2.93,0,0,0-3-2.95H740a2.93,2.93,0,0,0-2.95,2.95v6.82a3,3,0,0,0,2.95,2.95m97.56,4.32a42.85,42.85,0,0,0-34,15.44v-6a2.93,2.93,0,0,0-3-2.95h-4.09a2.93,2.93,0,0,0-3,2.95v78.83a2.93,2.93,0,0,0,3,2.95h4.09a2.92,2.92,0,0,0,3-2.95V783.32c0-18.51,15.11-34.07,33.62-33.73a33.11,33.11,0,0,1,32.49,33v45.09a2.93,2.93,0,0,0,3,2.95h4.09a2.93,2.93,0,0,0,3-2.95v-44.3c.12-23.62-18.51-43.5-42.14-43.95m-507.8,60.88a3.14,3.14,0,0,0-2-4.21L324.22,795a3.14,3.14,0,0,0-3.86,1.93,37.55,37.55,0,0,1-72.46-13.86,34.53,34.53,0,0,1,.8-7.61,37.62,37.62,0,0,1,70.64-8.86,3.15,3.15,0,0,1-2.16,4.55l-30,6.24a3.22,3.22,0,0,0-2.5,3.75l.8,3.64a3.2,3.2,0,0,0,3.74,2.49l40.78-8.4a3.22,3.22,0,0,0,2.5-3.75l-.34-1.82a47.69,47.69,0,0,0-93.37.23,45.51,45.51,0,0,0-1,9.54,47.63,47.63,0,0,0,92,17.27"/></svg>